<svg xmlns="http://www.w3.org/2000/svg" xmlns:xlink="http://www.w3.org/1999/xlink" viewBox="0,0,256,256" width="96px" height="96px" fill-rule="nonzero"><g fill="#ffffcc" fill-rule="nonzero" stroke="none" stroke-width="1" stroke-linecap="butt" stroke-linejoin="miter" stroke-miterlimit="10" stroke-dasharray="" stroke-dashoffset="0" font-family="none" font-weight="none" font-size="none" text-anchor="none" style="mix-blend-mode: normal"><g transform="scale(10.66667,10.66667)"><path d="M12,2c-5.514,0 -10,4.486 -10,10c0,2.757 1.12164,5.25736 2.93164,7.06836l1.41406,-1.41406c-1.449,-1.448 -2.3457,-3.4483 -2.3457,-5.6543c0,-4.411 3.589,-8 8,-8c4.411,0 8,3.589 8,8c0,2.206 -0.8967,4.2063 -2.3457,5.6543l1.41406,1.41406c1.81,-1.811 2.93164,-4.31136 2.93164,-7.06836c0,-5.514 -4.486,-10 -10,-10zM15.29297,7.29297l-5.29297,4.70703l2,2l4.70703,-5.29297z"></path></g></g></svg>