<svg xmlns="http://www.w3.org/2000/svg" xmlns:xlink="http://www.w3.org/1999/xlink" viewBox="0,0,256,256" width="96px" height="96px" fill-rule="nonzero"><g fill="#ffffcc" fill-rule="nonzero" stroke="none" stroke-width="1" stroke-linecap="butt" stroke-linejoin="miter" stroke-miterlimit="10" stroke-dasharray="" stroke-dashoffset="0" font-family="none" font-weight="none" font-size="none" text-anchor="none" style="mix-blend-mode: normal"><g transform="scale(10.66667,10.66667)"><path d="M12,1c-0.91667,0 -1.73144,0.37976 -2.24805,0.96094c-0.51661,0.58118 -0.75195,1.31684 -0.75195,2.03906c0,0.72222 0.23535,1.45788 0.75195,2.03906c0.31649,0.35606 0.75286,0.62326 1.24805,0.78711v0.2793c-0.35121,0.07247 -0.69605,0.18196 -1.0293,0.33203l-7.83984,3.5293l-0.00195,0.00195c-0.83835,0.38007 -1.2046,1.22721 -1.11914,2.03125h-0.00977v4.61523c0,0.54294 0.30184,1.05199 0.80273,1.30078l6.49219,3.21484c2.3391,1.15764 5.07106,1.15764 7.41016,0l6.48828,-3.21094c0.50569,-0.24782 0.80664,-0.76287 0.80664,-1.30469v-4.61523h-0.01367c0.08565,-0.80598 -0.28017,-1.65479 -1.12109,-2.0332l-7.83984,-3.5293c-0.33196,-0.14949 -0.67559,-0.25759 -1.02539,-0.33008v-0.28125c0.49518,-0.16385 0.93155,-0.43105 1.24805,-0.78711c0.51661,-0.58118 0.75195,-1.31684 0.75195,-2.03906c0,-0.72222 -0.23535,-1.45788 -0.75195,-2.03906c-0.51661,-0.58118 -1.33138,-0.96094 -2.24805,-0.96094zM12,3c0.41667,0 0.60189,0.12024 0.75195,0.28906c0.15006,0.16882 0.24805,0.43316 0.24805,0.71094c0,0.27778 -0.09799,0.54212 -0.24805,0.71094c-0.15006,0.16882 -0.33529,0.28906 -0.75195,0.28906c-0.41667,0 -0.60189,-0.12024 -0.75195,-0.28906c-0.15006,-0.16882 -0.24805,-0.43316 -0.24805,-0.71094c0,-0.27778 0.09799,-0.54212 0.24805,-0.71094c0.15006,-0.16882 0.33529,-0.28906 0.75195,-0.28906zM11,9.19336v3.80664h2v-3.80469c0.06726,0.02481 0.13667,0.03648 0.20313,0.06641l7.82422,3.52148l-6.67773,3.61133c-1.50009,0.81136 -3.20108,0.81136 -4.70117,0l-6.67773,-3.61133l7.82227,-3.52148c0.0678,-0.03053 0.1384,-0.04315 0.20703,-0.06836zM7.5,12c-0.82843,0 -1.5,0.44772 -1.5,1c0,0.55228 0.67157,1 1.5,1c0.82843,0 1.5,-0.44772 1.5,-1c0,-0.55228 -0.67157,-1 -1.5,-1zM3,15.07227l5.69727,3.08203c2.07191,1.12064 4.53161,1.12064 6.60352,0h0.00195l5.69727,-3.08203v2.20508l-6.18164,3.06055c-1.7869,0.88435 -3.84982,0.88435 -5.63672,0l-6.18164,-3.06055z"></path></g></g></svg>