<svg xmlns="http://www.w3.org/2000/svg" xmlns:xlink="http://www.w3.org/1999/xlink" viewBox="0,0,256,256" width="100px" height="100px" fill-rule="nonzero"><g fill="#ffffcc" fill-rule="nonzero" stroke="none" stroke-width="1" stroke-linecap="butt" stroke-linejoin="miter" stroke-miterlimit="10" stroke-dasharray="" stroke-dashoffset="0" font-family="none" font-weight="none" font-size="none" text-anchor="none" style="mix-blend-mode: normal"><g transform="scale(5.12,5.12)"><path d="M25,0c1.522,3.563 2.72938,7.2063 3.60938,10.9043c0.232,0.922 0.3897,1.85725 0.5957,2.78125c0.144,0.935 0.33683,1.86273 0.42383,2.80273c0.273,1.868 0.35514,3.75295 0.36914,5.62695c0.004,3.726 -0.72414,7.43561 -2.24414,10.84961c-1.52923,3.38743 -3.77913,6.51948 -6.72656,9.01172c-6.67289,-0.25145 -12.02734,-5.74321 -12.02734,-12.47656c0,-6.893 5.607,-12.5 12.5,-12.5c1.061,0 2.15023,0.14841 3.24023,0.44141c0.302,0.082 0.62214,0.01517 0.86914,-0.17383c0.246,-0.189 0.39063,-0.48197 0.39063,-0.79297v-4.12305c0,-0.476 -0.33478,-0.88547 -0.80078,-0.98047c-1.215,-0.246 -2.45922,-0.37109 -3.69922,-0.37109c-10.201,0 -18.5,8.299 -18.5,18.5c0,10.201 8.299,18.5 18.5,18.5c10.201,0 18.5,-8.299 18.5,-18.5c0,-1.559 -0.21563,-3.15981 -0.64062,-4.75781c-0.116,-0.438 -0.51084,-0.74219 -0.96484,-0.74219h-4.17969c-0.324,0 -0.62841,0.15783 -0.81641,0.42383c-0.187,0.265 -0.23495,0.60316 -0.12695,0.91016c0.483,1.362 0.72852,2.76502 0.72852,4.16602c0,6.893 -5.607,12.5 -12.5,12.5c-0.1557,0 -0.3066,-0.01777 -0.46094,-0.02344c3.43154,-1.82036 6.21776,-4.84485 8.10938,-8.32227c0.975,-1.744 1.64758,-3.64794 2.14258,-5.58594c0.46,-1.95 0.67508,-3.95131 0.70508,-5.94531c-0.01784,-1.81402 -0.16271,-3.62195 -0.42578,-5.4082c0.01958,-0.00281 0.03911,0.00397 0.05859,0c0.131,-0.028 2.8067,-0.60262 7.3457,-3.26562c-0.835,1.442 -2.30542,3.19284 -4.85742,4.46484c-0.305,0.151 -0.51087,0.45006 -0.54688,0.78906c-0.037,0.339 0.10119,0.67272 0.36719,0.88672c0.074,0.058 1.79516,1.41211 4.91016,1.41211c0.055,0 0.11097,-0.00095 0.16797,-0.00195c3.72,-0.058 7.65642,-3.83912 7.98242,-10.95312c0.236,-5.157 -1.07291,-8.32208 -1.12891,-8.45508c-0.129,-0.305 -0.40156,-0.52389 -0.72656,-0.58789c-0.325,-0.068 -0.66144,0.03558 -0.89844,0.26758c-0.015,0.015 -1.55778,1.50494 -5.05078,2.83594c-0.611,0.233 -1.19509,0.44644 -1.74609,0.64844c-3.026,1.109 -5.21069,1.91152 -6.30469,3.72852c-0.4609,0.76572 -0.69641,1.71583 -0.82227,2.67578c-0.0693,-0.22523 -0.13529,-0.45207 -0.20898,-0.67578c-1.193,-3.731 -2.85633,-7.31637 -5.11133,-10.48437zM44.42578,3.66211c0.324,1.281 0.70617,3.45802 0.57617,6.29102c-0.299,6.526 -3.84958,9.01387 -6.01758,9.04688c-0.918,0.026 -1.6883,-0.1142 -2.2793,-0.2832c4.509,-3.052 5.24925,-7.35859 5.28125,-7.55859c0.063,-0.393 -0.11326,-0.785 -0.44727,-1c-0.334,-0.214 -0.76275,-0.20928 -1.09375,0.01172c-3.892,2.594 -6.73983,3.77648 -8.17383,4.27148c-0.133,-1.495 -0.14202,-3.72078 0.58398,-4.92578c0.731,-1.214 2.64025,-1.91281 5.28125,-2.88281c0.559,-0.205 1.14858,-0.4222 1.76758,-0.6582c2.111,-0.805 3.59148,-1.6705 4.52148,-2.3125zM21.5,13c0.835,0 1.673,0.06245 2.5,0.18945v2.03711c-0.839,-0.151 -1.676,-0.22656 -2.5,-0.22656c-7.995,0 -14.5,6.505 -14.5,14.5c0,7.995 6.505,14.5 14.5,14.5c7.995,0 14.5,-6.505 14.5,-14.5c0,-1.174 -0.1465,-2.347 -0.4375,-3.5h2.04492c0.261,1.181 0.39258,2.354 0.39258,3.5c0,9.098 -7.402,16.5 -16.5,16.5c-9.098,0 -16.5,-7.402 -16.5,-16.5c0,-9.098 7.402,-16.5 16.5,-16.5z"></path></g></g></svg>